<?xml version="1.0" encoding="UTF-8" standalone="no"?>
<!DOCTYPE svg PUBLIC "-//W3C//DTD SVG 1.1//EN"
 "http://www.w3.org/Graphics/SVG/1.1/DTD/svg11.dtd">
<!-- Generated by graphviz version 12.1.2 (20240928.0832)
 -->
<!-- Title: public.rooms Pages: 1 -->
<svg width="2346pt" height="879pt"
 viewBox="0.00 0.00 2345.63 879.20" xmlns="http://www.w3.org/2000/svg" xmlns:xlink="http://www.w3.org/1999/xlink">
<g id="graph0" class="graph" transform="scale(1 1) rotate(0) translate(4 875.2)">
<title>public.rooms</title>
<polygon fill="white" stroke="none" points="-4,4 -4,-875.2 2341.63,-875.2 2341.63,4 -4,4"/>
<!-- public.rooms -->
<g id="node1" class="node">
<title>public.rooms</title>
<polygon fill="#efefef" stroke="none" points="1033.01,-231 1033.01,-266.6 1302.25,-266.6 1302.25,-231 1033.01,-231"/>
<polygon fill="none" stroke="black" points="1033.01,-231 1033.01,-266.6 1302.25,-266.6 1302.25,-231 1033.01,-231"/>
<text text-anchor="start" x="1058.14" y="-244.4" font-family="Arial Bold" font-size="18.00">public.rooms</text>
<text text-anchor="start" x="1152.63" y="-244.4" font-family="Arial" font-size="14.00">    </text>
<text text-anchor="start" x="1183.75" y="-244.4" font-family="Arial" font-size="14.00" fill="#666666">[BASE TABLE]</text>
<polygon fill="none" stroke="black" points="1033.01,-200.2 1033.01,-231 1302.25,-231 1302.25,-200.2 1033.01,-200.2"/>
<text text-anchor="start" x="1040.01" y="-212.4" font-family="Arial" font-size="14.00">id </text>
<text text-anchor="start" x="1054.8" y="-212.4" font-family="Arial" font-size="14.00" fill="#666666">[text]</text>
<polygon fill="none" stroke="black" points="1033.01,-169.4 1033.01,-200.2 1302.25,-200.2 1302.25,-169.4 1033.01,-169.4"/>
<text text-anchor="start" x="1040.01" y="-181.6" font-family="Arial" font-size="14.00">name </text>
<text text-anchor="start" x="1078.92" y="-181.6" font-family="Arial" font-size="14.00" fill="#666666">[text]</text>
<polygon fill="none" stroke="black" points="1033.01,-138.6 1033.01,-169.4 1302.25,-169.4 1302.25,-138.6 1033.01,-138.6"/>
<text text-anchor="start" x="1040.01" y="-150.8" font-family="Arial" font-size="14.00">mode </text>
<text text-anchor="start" x="1078.92" y="-150.8" font-family="Arial" font-size="14.00" fill="#666666">[text]</text>
<polygon fill="none" stroke="black" points="1033.01,-107.8 1033.01,-138.6 1302.25,-138.6 1302.25,-107.8 1033.01,-107.8"/>
<text text-anchor="start" x="1040.01" y="-120" font-family="Arial" font-size="14.00">host_id </text>
<text text-anchor="start" x="1089.05" y="-120" font-family="Arial" font-size="14.00" fill="#666666">[text]</text>
<polygon fill="none" stroke="black" points="1033.01,-77 1033.01,-107.8 1302.25,-107.8 1302.25,-77 1033.01,-77"/>
<text text-anchor="start" x="1040.01" y="-89.2" font-family="Arial" font-size="14.00">admin_password_hash </text>
<text text-anchor="start" x="1187.88" y="-89.2" font-family="Arial" font-size="14.00" fill="#666666">[text]</text>
<polygon fill="none" stroke="black" points="1033.01,-46.2 1033.01,-77 1302.25,-77 1302.25,-46.2 1033.01,-46.2"/>
<text text-anchor="start" x="1040.01" y="-58.4" font-family="Arial" font-size="14.00">created_at </text>
<text text-anchor="start" x="1110.06" y="-58.4" font-family="Arial" font-size="14.00" fill="#666666">[timestamp without time zone]</text>
<polygon fill="none" stroke="black" stroke-width="3" points="1031.51,-44.7 1031.51,-268.1 1303.75,-268.1 1303.75,-44.7 1031.51,-44.7"/>
</g>
<!-- public.room_settings -->
<g id="node2" class="node">
<title>public.room_settings</title>
<polygon fill="#efefef" stroke="none" points="63.64,-746.2 63.64,-781.8 353.62,-781.8 353.62,-746.2 63.64,-746.2"/>
<polygon fill="none" stroke="black" points="63.64,-746.2 63.64,-781.8 353.62,-781.8 353.62,-746.2 63.64,-746.2"/>
<text text-anchor="start" x="70.64" y="-759.6" font-family="Arial Bold" font-size="18.00">public.room_settings</text>
<text text-anchor="start" x="222.13" y="-759.6" font-family="Arial" font-size="14.00">    </text>
<text text-anchor="start" x="253.25" y="-759.6" font-family="Arial" font-size="14.00" fill="#666666">[BASE TABLE]</text>
<polygon fill="none" stroke="black" points="63.64,-715.4 63.64,-746.2 353.62,-746.2 353.62,-715.4 63.64,-715.4"/>
<text text-anchor="start" x="70.64" y="-727.6" font-family="Arial" font-size="14.00">room_id </text>
<text text-anchor="start" x="125.11" y="-727.6" font-family="Arial" font-size="14.00" fill="#666666">[text]</text>
<polygon fill="none" stroke="black" points="63.64,-684.6 63.64,-715.4 353.62,-715.4 353.62,-684.6 63.64,-684.6"/>
<text text-anchor="start" x="70.64" y="-696.8" font-family="Arial" font-size="14.00">skip_allowed </text>
<text text-anchor="start" x="154.69" y="-696.8" font-family="Arial" font-size="14.00" fill="#666666">[boolean]</text>
<polygon fill="none" stroke="black" points="63.64,-653.8 63.64,-684.6 353.62,-684.6 353.62,-653.8 63.64,-653.8"/>
<text text-anchor="start" x="70.64" y="-666" font-family="Arial" font-size="14.00">democratic_skip </text>
<text text-anchor="start" x="175.68" y="-666" font-family="Arial" font-size="14.00" fill="#666666">[boolean]</text>
<polygon fill="none" stroke="black" points="63.64,-623 63.64,-653.8 353.62,-653.8 353.62,-623 63.64,-623"/>
<text text-anchor="start" x="70.64" y="-635.2" font-family="Arial" font-size="14.00">skip_vote_threshold </text>
<text text-anchor="start" x="199.06" y="-635.2" font-family="Arial" font-size="14.00" fill="#666666">[real]</text>
<polygon fill="none" stroke="black" points="63.64,-592.2 63.64,-623 353.62,-623 353.62,-592.2 63.64,-592.2"/>
<text text-anchor="start" x="70.64" y="-604.4" font-family="Arial" font-size="14.00">max_continuous_adds </text>
<text text-anchor="start" x="214.63" y="-604.4" font-family="Arial" font-size="14.00" fill="#666666">[integer]</text>
<polygon fill="none" stroke="black" points="63.64,-561.4 63.64,-592.2 353.62,-592.2 353.62,-561.4 63.64,-561.4"/>
<text text-anchor="start" x="70.64" y="-573.6" font-family="Arial" font-size="14.00">remove_on_play </text>
<text text-anchor="start" x="178.04" y="-573.6" font-family="Arial" font-size="14.00" fill="#666666">[boolean]</text>
<polygon fill="none" stroke="black" points="63.64,-530.6 63.64,-561.4 353.62,-561.4 353.62,-530.6 63.64,-530.6"/>
<text text-anchor="start" x="70.64" y="-542.8" font-family="Arial" font-size="14.00">loop_queue </text>
<text text-anchor="start" x="147.72" y="-542.8" font-family="Arial" font-size="14.00" fill="#666666">[boolean]</text>
<polygon fill="none" stroke="black" points="63.64,-499.8 63.64,-530.6 353.62,-530.6 353.62,-499.8 63.64,-499.8"/>
<text text-anchor="start" x="70.64" y="-512" font-family="Arial" font-size="14.00">allow_duplicates </text>
<text text-anchor="start" x="177.26" y="-512" font-family="Arial" font-size="14.00" fill="#666666">[boolean]</text>
<polygon fill="none" stroke="black" points="63.64,-469 63.64,-499.8 353.62,-499.8 353.62,-469 63.64,-469"/>
<text text-anchor="start" x="70.64" y="-481.2" font-family="Arial" font-size="14.00">enabled_sources </text>
<text text-anchor="start" x="181.17" y="-481.2" font-family="Arial" font-size="14.00" fill="#666666">[text]</text>
<polygon fill="none" stroke="black" points="63.64,-438.2 63.64,-469 353.62,-469 353.62,-438.2 63.64,-438.2"/>
<text text-anchor="start" x="70.64" y="-450.4" font-family="Arial" font-size="14.00">only_admin_add_songs </text>
<text text-anchor="start" x="222.42" y="-450.4" font-family="Arial" font-size="14.00" fill="#666666">[boolean]</text>
</g>
<!-- public.room_settings&#45;&gt;public.rooms -->
<g id="edge1" class="edge">
<title>public.room_settings:room_id&#45;&gt;public.rooms:id</title>
<path fill="none" stroke="black" d="M364.7,-729.08C432.56,-703.85 349.94,-408.94 405.63,-348.8 502.32,-244.38 889.71,-215.6 1032.01,-215.6"/>
<polygon fill="black" stroke="black" points="364.81,-729.06 354.19,-726.31 359.55,-729.96 355.28,-730.69 355.28,-730.69 355.28,-730.69 359.55,-729.96 355.71,-735.18 364.81,-729.06"/>
<text text-anchor="start" x="7" y="-740.8" font-family="Arial" font-size="10.00">FOREIGN KEY (room_id) REFERENCES rooms(id) ON DELETE CASCADE</text>
</g>
<!-- public.songs -->
<g id="node3" class="node">
<title>public.songs</title>
<polygon fill="#efefef" stroke="none" points="457.9,-792.4 457.9,-828 719.37,-828 719.37,-792.4 457.9,-792.4"/>
<polygon fill="none" stroke="black" points="457.9,-792.4 457.9,-828 719.37,-828 719.37,-792.4 457.9,-792.4"/>
<text text-anchor="start" x="481.14" y="-805.8" font-family="Arial Bold" font-size="18.00">public.songs</text>
<text text-anchor="start" x="571.64" y="-805.8" font-family="Arial" font-size="14.00">    </text>
<text text-anchor="start" x="602.75" y="-805.8" font-family="Arial" font-size="14.00" fill="#666666">[BASE TABLE]</text>
<polygon fill="none" stroke="black" points="457.9,-761.6 457.9,-792.4 719.37,-792.4 719.37,-761.6 457.9,-761.6"/>
<text text-anchor="start" x="464.9" y="-773.8" font-family="Arial" font-size="14.00">id </text>
<text text-anchor="start" x="479.68" y="-773.8" font-family="Arial" font-size="14.00" fill="#666666">[text]</text>
<polygon fill="none" stroke="black" points="457.9,-730.8 457.9,-761.6 719.37,-761.6 719.37,-730.8 457.9,-730.8"/>
<text text-anchor="start" x="464.9" y="-743" font-family="Arial" font-size="14.00">room_id </text>
<text text-anchor="start" x="519.37" y="-743" font-family="Arial" font-size="14.00" fill="#666666">[text]</text>
<polygon fill="none" stroke="black" points="457.9,-700 457.9,-730.8 719.37,-730.8 719.37,-700 457.9,-700"/>
<text text-anchor="start" x="464.9" y="-712.2" font-family="Arial" font-size="14.00">source_type </text>
<text text-anchor="start" x="545.06" y="-712.2" font-family="Arial" font-size="14.00" fill="#666666">[text]</text>
<polygon fill="none" stroke="black" points="457.9,-669.2 457.9,-700 719.37,-700 719.37,-669.2 457.9,-669.2"/>
<text text-anchor="start" x="464.9" y="-681.4" font-family="Arial" font-size="14.00">source_id </text>
<text text-anchor="start" x="529.49" y="-681.4" font-family="Arial" font-size="14.00" fill="#666666">[text]</text>
<polygon fill="none" stroke="black" points="457.9,-638.4 457.9,-669.2 719.37,-669.2 719.37,-638.4 457.9,-638.4"/>
<text text-anchor="start" x="464.9" y="-650.6" font-family="Arial" font-size="14.00">title </text>
<text text-anchor="start" x="490.57" y="-650.6" font-family="Arial" font-size="14.00" fill="#666666">[text]</text>
<polygon fill="none" stroke="black" points="457.9,-607.6 457.9,-638.4 719.37,-638.4 719.37,-607.6 457.9,-607.6"/>
<text text-anchor="start" x="464.9" y="-619.8" font-family="Arial" font-size="14.00">artist </text>
<text text-anchor="start" x="499.12" y="-619.8" font-family="Arial" font-size="14.00" fill="#666666">[text]</text>
<polygon fill="none" stroke="black" points="457.9,-576.8 457.9,-607.6 719.37,-607.6 719.37,-576.8 457.9,-576.8"/>
<text text-anchor="start" x="464.9" y="-589" font-family="Arial" font-size="14.00">thumbnail_url </text>
<text text-anchor="start" x="552.83" y="-589" font-family="Arial" font-size="14.00" fill="#666666">[text]</text>
<polygon fill="none" stroke="black" points="457.9,-546 457.9,-576.8 719.37,-576.8 719.37,-546 457.9,-546"/>
<text text-anchor="start" x="464.9" y="-558.2" font-family="Arial" font-size="14.00">duration </text>
<text text-anchor="start" x="519.38" y="-558.2" font-family="Arial" font-size="14.00" fill="#666666">[integer]</text>
<polygon fill="none" stroke="black" points="457.9,-515.2 457.9,-546 719.37,-546 719.37,-515.2 457.9,-515.2"/>
<text text-anchor="start" x="464.9" y="-527.4" font-family="Arial" font-size="14.00">added_by </text>
<text text-anchor="start" x="530.29" y="-527.4" font-family="Arial" font-size="14.00" fill="#666666">[text]</text>
<polygon fill="none" stroke="black" points="457.9,-484.4 457.9,-515.2 719.37,-515.2 719.37,-484.4 457.9,-484.4"/>
<text text-anchor="start" x="464.9" y="-496.6" font-family="Arial" font-size="14.00">added_by_nickname </text>
<text text-anchor="start" x="597.99" y="-496.6" font-family="Arial" font-size="14.00" fill="#666666">[text]</text>
<polygon fill="none" stroke="black" points="457.9,-453.6 457.9,-484.4 719.37,-484.4 719.37,-453.6 457.9,-453.6"/>
<text text-anchor="start" x="464.9" y="-465.8" font-family="Arial" font-size="14.00">added_at </text>
<text text-anchor="start" x="527.18" y="-465.8" font-family="Arial" font-size="14.00" fill="#666666">[timestamp without time zone]</text>
<polygon fill="none" stroke="black" points="457.9,-422.8 457.9,-453.6 719.37,-453.6 719.37,-422.8 457.9,-422.8"/>
<text text-anchor="start" x="464.9" y="-435" font-family="Arial" font-size="14.00">position </text>
<text text-anchor="start" x="517.04" y="-435" font-family="Arial" font-size="14.00" fill="#666666">[integer]</text>
<polygon fill="none" stroke="black" points="457.9,-392 457.9,-422.8 719.37,-422.8 719.37,-392 457.9,-392"/>
<text text-anchor="start" x="464.9" y="-404.2" font-family="Arial" font-size="14.00">duplicate_guard </text>
<text text-anchor="start" x="568.42" y="-404.2" font-family="Arial" font-size="14.00" fill="#666666">[boolean]</text>
</g>
<!-- public.songs&#45;&gt;public.rooms -->
<g id="edge2" class="edge">
<title>public.songs:room_id&#45;&gt;public.rooms:id</title>
<path fill="none" stroke="black" d="M730.45,-744.6C802.34,-720 722.5,-418.64 771.63,-348.8 846.43,-242.49 902.03,-215.6 1032.01,-215.6"/>
<polygon fill="black" stroke="black" points="730.57,-744.58 719.99,-741.7 725.3,-745.42 721.03,-746.1 721.03,-746.1 721.03,-746.1 725.3,-745.42 721.4,-750.59 730.57,-744.58"/>
<text text-anchor="start" x="727.37" y="-756.2" font-family="Arial" font-size="10.00">FOREIGN KEY (room_id) REFERENCES rooms(id) ON DELETE CASCADE</text>
</g>
<!-- public.playback_state -->
<g id="node4" class="node">
<title>public.playback_state</title>
<polygon fill="#efefef" stroke="none" points="824.16,-669.2 824.16,-704.8 1119.1,-704.8 1119.1,-669.2 824.16,-669.2"/>
<polygon fill="none" stroke="black" points="824.16,-669.2 824.16,-704.8 1119.1,-704.8 1119.1,-669.2 824.16,-669.2"/>
<text text-anchor="start" x="831.16" y="-682.6" font-family="Arial Bold" font-size="18.00">public.playback_state</text>
<text text-anchor="start" x="987.61" y="-682.6" font-family="Arial" font-size="14.00">    </text>
<text text-anchor="start" x="1018.73" y="-682.6" font-family="Arial" font-size="14.00" fill="#666666">[BASE TABLE]</text>
<polygon fill="none" stroke="black" points="824.16,-638.4 824.16,-669.2 1119.1,-669.2 1119.1,-638.4 824.16,-638.4"/>
<text text-anchor="start" x="831.16" y="-650.6" font-family="Arial" font-size="14.00">room_id </text>
<text text-anchor="start" x="885.63" y="-650.6" font-family="Arial" font-size="14.00" fill="#666666">[text]</text>
<polygon fill="none" stroke="black" points="824.16,-607.6 824.16,-638.4 1119.1,-638.4 1119.1,-607.6 824.16,-607.6"/>
<text text-anchor="start" x="831.16" y="-619.8" font-family="Arial" font-size="14.00">current_song_id </text>
<text text-anchor="start" x="935.45" y="-619.8" font-family="Arial" font-size="14.00" fill="#666666">[text]</text>
<polygon fill="none" stroke="black" points="824.16,-576.8 824.16,-607.6 1119.1,-607.6 1119.1,-576.8 824.16,-576.8"/>
<text text-anchor="start" x="831.16" y="-589" font-family="Arial" font-size="14.00">is_playing </text>
<text text-anchor="start" x="897.32" y="-589" font-family="Arial" font-size="14.00" fill="#666666">[boolean]</text>
<polygon fill="none" stroke="black" points="824.16,-546 824.16,-576.8 1119.1,-576.8 1119.1,-546 824.16,-546"/>
<text text-anchor="start" x="831.16" y="-558.2" font-family="Arial" font-size="14.00">position_ms </text>
<text text-anchor="start" x="909.76" y="-558.2" font-family="Arial" font-size="14.00" fill="#666666">[integer]</text>
<polygon fill="none" stroke="black" points="824.16,-515.2 824.16,-546 1119.1,-546 1119.1,-515.2 824.16,-515.2"/>
<text text-anchor="start" x="831.16" y="-527.4" font-family="Arial" font-size="14.00">updated_at </text>
<text text-anchor="start" x="905.12" y="-527.4" font-family="Arial" font-size="14.00" fill="#666666">[timestamp without time zone]</text>
</g>
<!-- public.playback_state&#45;&gt;public.rooms -->
<g id="edge3" class="edge">
<title>public.playback_state:room_id&#45;&gt;public.rooms:id</title>
<path fill="none" stroke="black" d="M1130.14,-653.18C1195.43,-644.55 1138.24,-546.76 1119.1,-472 1099.15,-394.08 1053.15,-390.68 1033.01,-312.8 1022.2,-270.97 988.81,-215.6 1032.01,-215.6"/>
<polygon fill="black" stroke="black" points="1130.41,-653.17 1120.16,-649.29 1125.09,-653.49 1120.77,-653.76 1120.77,-653.76 1120.77,-653.76 1125.09,-653.49 1120.71,-658.27 1130.41,-653.17"/>
<text text-anchor="start" x="1127.1" y="-663.8" font-family="Arial" font-size="10.00">FOREIGN KEY (room_id) REFERENCES rooms(id) ON DELETE CASCADE</text>
</g>
<!-- public.room_users -->
<g id="node5" class="node">
<title>public.room_users</title>
<polygon fill="#efefef" stroke="none" points="1223.4,-730.8 1223.4,-766.4 1505.87,-766.4 1505.87,-730.8 1223.4,-730.8"/>
<polygon fill="none" stroke="black" points="1223.4,-730.8 1223.4,-766.4 1505.87,-766.4 1505.87,-730.8 1223.4,-730.8"/>
<text text-anchor="start" x="1235.65" y="-744.2" font-family="Arial Bold" font-size="18.00">public.room_users</text>
<text text-anchor="start" x="1369.13" y="-744.2" font-family="Arial" font-size="14.00">    </text>
<text text-anchor="start" x="1400.24" y="-744.2" font-family="Arial" font-size="14.00" fill="#666666">[BASE TABLE]</text>
<polygon fill="none" stroke="black" points="1223.4,-700 1223.4,-730.8 1505.87,-730.8 1505.87,-700 1223.4,-700"/>
<text text-anchor="start" x="1230.4" y="-712.2" font-family="Arial" font-size="14.00">id </text>
<text text-anchor="start" x="1245.18" y="-712.2" font-family="Arial" font-size="14.00" fill="#666666">[text]</text>
<polygon fill="none" stroke="black" points="1223.4,-669.2 1223.4,-700 1505.87,-700 1505.87,-669.2 1223.4,-669.2"/>
<text text-anchor="start" x="1230.4" y="-681.4" font-family="Arial" font-size="14.00">room_id </text>
<text text-anchor="start" x="1284.87" y="-681.4" font-family="Arial" font-size="14.00" fill="#666666">[text]</text>
<polygon fill="none" stroke="black" points="1223.4,-638.4 1223.4,-669.2 1505.87,-669.2 1505.87,-638.4 1223.4,-638.4"/>
<text text-anchor="start" x="1230.4" y="-650.6" font-family="Arial" font-size="14.00">nickname </text>
<text text-anchor="start" x="1294.2" y="-650.6" font-family="Arial" font-size="14.00" fill="#666666">[text]</text>
<polygon fill="none" stroke="black" points="1223.4,-607.6 1223.4,-638.4 1505.87,-638.4 1505.87,-607.6 1223.4,-607.6"/>
<text text-anchor="start" x="1230.4" y="-619.8" font-family="Arial" font-size="14.00">is_admin </text>
<text text-anchor="start" x="1290.31" y="-619.8" font-family="Arial" font-size="14.00" fill="#666666">[boolean]</text>
<polygon fill="none" stroke="black" points="1223.4,-576.8 1223.4,-607.6 1505.87,-607.6 1505.87,-576.8 1223.4,-576.8"/>
<text text-anchor="start" x="1230.4" y="-589" font-family="Arial" font-size="14.00">is_active_listener </text>
<text text-anchor="start" x="1341.67" y="-589" font-family="Arial" font-size="14.00" fill="#666666">[boolean]</text>
<polygon fill="none" stroke="black" points="1223.4,-546 1223.4,-576.8 1505.87,-576.8 1505.87,-546 1223.4,-546"/>
<text text-anchor="start" x="1230.4" y="-558.2" font-family="Arial" font-size="14.00">is_cast_receiver </text>
<text text-anchor="start" x="1335.44" y="-558.2" font-family="Arial" font-size="14.00" fill="#666666">[boolean]</text>
<polygon fill="none" stroke="black" points="1223.4,-515.2 1223.4,-546 1505.87,-546 1505.87,-515.2 1223.4,-515.2"/>
<text text-anchor="start" x="1230.4" y="-527.4" font-family="Arial" font-size="14.00">cast_owner_id </text>
<text text-anchor="start" x="1324.56" y="-527.4" font-family="Arial" font-size="14.00" fill="#666666">[text]</text>
<polygon fill="none" stroke="black" points="1223.4,-484.4 1223.4,-515.2 1505.87,-515.2 1505.87,-484.4 1223.4,-484.4"/>
<text text-anchor="start" x="1230.4" y="-496.6" font-family="Arial" font-size="14.00">joined_at </text>
<text text-anchor="start" x="1291.11" y="-496.6" font-family="Arial" font-size="14.00" fill="#666666">[timestamp without time zone]</text>
<polygon fill="none" stroke="black" points="1223.4,-453.6 1223.4,-484.4 1505.87,-484.4 1505.87,-453.6 1223.4,-453.6"/>
<text text-anchor="start" x="1230.4" y="-465.8" font-family="Arial" font-size="14.00">last_seen_at </text>
<text text-anchor="start" x="1313.68" y="-465.8" font-family="Arial" font-size="14.00" fill="#666666">[timestamp without time zone]</text>
</g>
<!-- public.room_users&#45;&gt;public.rooms -->
<g id="edge4" class="edge">
<title>public.room_users:room_id&#45;&gt;public.rooms:id</title>
<path fill="none" stroke="black" d="M1212.43,-682.3C1166.41,-658.93 1204.22,-464.34 1223.4,-410.4 1242.08,-357.86 1283.39,-365.28 1302.25,-312.8 1316.86,-272.14 1346.45,-215.6 1303.25,-215.6"/>
<polygon fill="black" stroke="black" points="1212.33,-682.28 1221.06,-688.91 1217.53,-683.48 1221.75,-684.45 1221.75,-684.45 1221.75,-684.45 1217.53,-683.48 1223.08,-680.14 1212.33,-682.28"/>
<text text-anchor="start" x="874.78" y="-694.6" font-family="Arial" font-size="10.00">FOREIGN KEY (room_id) REFERENCES rooms(id) ON DELETE CASCADE</text>
</g>
<!-- public.skip_votes -->
<g id="node6" class="node">
<title>public.skip_votes</title>
<polygon fill="#efefef" stroke="none" points="1610.01,-653.8 1610.01,-689.4 1879.25,-689.4 1879.25,-653.8 1610.01,-653.8"/>
<polygon fill="none" stroke="black" points="1610.01,-653.8 1610.01,-689.4 1879.25,-689.4 1879.25,-653.8 1610.01,-653.8"/>
<text text-anchor="start" x="1619.14" y="-667.2" font-family="Arial Bold" font-size="18.00">public.skip_votes</text>
<text text-anchor="start" x="1745.63" y="-667.2" font-family="Arial" font-size="14.00">    </text>
<text text-anchor="start" x="1776.75" y="-667.2" font-family="Arial" font-size="14.00" fill="#666666">[BASE TABLE]</text>
<polygon fill="none" stroke="black" points="1610.01,-623 1610.01,-653.8 1879.25,-653.8 1879.25,-623 1610.01,-623"/>
<text text-anchor="start" x="1617.01" y="-635.2" font-family="Arial" font-size="14.00">room_id </text>
<text text-anchor="start" x="1671.48" y="-635.2" font-family="Arial" font-size="14.00" fill="#666666">[text]</text>
<polygon fill="none" stroke="black" points="1610.01,-592.2 1610.01,-623 1879.25,-623 1879.25,-592.2 1610.01,-592.2"/>
<text text-anchor="start" x="1617.01" y="-604.4" font-family="Arial" font-size="14.00">song_id </text>
<text text-anchor="start" x="1669.95" y="-604.4" font-family="Arial" font-size="14.00" fill="#666666">[text]</text>
<polygon fill="none" stroke="black" points="1610.01,-561.4 1610.01,-592.2 1879.25,-592.2 1879.25,-561.4 1610.01,-561.4"/>
<text text-anchor="start" x="1617.01" y="-573.6" font-family="Arial" font-size="14.00">user_id </text>
<text text-anchor="start" x="1666.82" y="-573.6" font-family="Arial" font-size="14.00" fill="#666666">[text]</text>
<polygon fill="none" stroke="black" points="1610.01,-530.6 1610.01,-561.4 1879.25,-561.4 1879.25,-530.6 1610.01,-530.6"/>
<text text-anchor="start" x="1617.01" y="-542.8" font-family="Arial" font-size="14.00">created_at </text>
<text text-anchor="start" x="1687.06" y="-542.8" font-family="Arial" font-size="14.00" fill="#666666">[timestamp without time zone]</text>
</g>
<!-- public.skip_votes&#45;&gt;public.rooms -->
<g id="edge5" class="edge">
<title>public.skip_votes:room_id&#45;&gt;public.rooms:id</title>
<path fill="none" stroke="black" d="M1599.01,-636.2C1549.32,-612.16 1594.06,-398.55 1557.63,-348.8 1482.24,-245.83 1430.87,-215.6 1303.25,-215.6"/>
<polygon fill="black" stroke="black" points="1598.92,-636.18 1607.72,-642.72 1604.13,-637.33 1608.36,-638.26 1608.36,-638.26 1608.36,-638.26 1604.13,-637.33 1609.66,-633.93 1598.92,-636.18"/>
<text text-anchor="start" x="1616.01" y="-648.4" font-family="Arial" font-size="10.00">FOREIGN KEY (room_id) REFERENCES rooms(id) ON DELETE CASCADE</text>
</g>
<!-- public.song_votes -->
<g id="node7" class="node">
<title>public.song_votes</title>
<polygon fill="#efefef" stroke="none" points="1984.01,-653.8 1984.01,-689.4 2253.25,-689.4 2253.25,-653.8 1984.01,-653.8"/>
<polygon fill="none" stroke="black" points="1984.01,-653.8 1984.01,-689.4 2253.25,-689.4 2253.25,-653.8 1984.01,-653.8"/>
<text text-anchor="start" x="1991.14" y="-667.2" font-family="Arial Bold" font-size="18.00">public.song_votes</text>
<text text-anchor="start" x="2121.63" y="-667.2" font-family="Arial" font-size="14.00">    </text>
<text text-anchor="start" x="2152.75" y="-667.2" font-family="Arial" font-size="14.00" fill="#666666">[BASE TABLE]</text>
<polygon fill="none" stroke="black" points="1984.01,-623 1984.01,-653.8 2253.25,-653.8 2253.25,-623 1984.01,-623"/>
<text text-anchor="start" x="1991.01" y="-635.2" font-family="Arial" font-size="14.00">room_id </text>
<text text-anchor="start" x="2045.48" y="-635.2" font-family="Arial" font-size="14.00" fill="#666666">[text]</text>
<polygon fill="none" stroke="black" points="1984.01,-592.2 1984.01,-623 2253.25,-623 2253.25,-592.2 1984.01,-592.2"/>
<text text-anchor="start" x="1991.01" y="-604.4" font-family="Arial" font-size="14.00">song_id </text>
<text text-anchor="start" x="2043.95" y="-604.4" font-family="Arial" font-size="14.00" fill="#666666">[text]</text>
<polygon fill="none" stroke="black" points="1984.01,-561.4 1984.01,-592.2 2253.25,-592.2 2253.25,-561.4 1984.01,-561.4"/>
<text text-anchor="start" x="1991.01" y="-573.6" font-family="Arial" font-size="14.00">user_id </text>
<text text-anchor="start" x="2040.82" y="-573.6" font-family="Arial" font-size="14.00" fill="#666666">[text]</text>
<polygon fill="none" stroke="black" points="1984.01,-530.6 1984.01,-561.4 2253.25,-561.4 2253.25,-530.6 1984.01,-530.6"/>
<text text-anchor="start" x="1991.01" y="-542.8" font-family="Arial" font-size="14.00">created_at </text>
<text text-anchor="start" x="2061.06" y="-542.8" font-family="Arial" font-size="14.00" fill="#666666">[timestamp without time zone]</text>
</g>
<!-- public.song_votes&#45;&gt;public.rooms -->
<g id="edge6" class="edge">
<title>public.song_votes:room_id&#45;&gt;public.rooms:id</title>
<path fill="none" stroke="black" d="M1973.07,-636.14C1924.05,-611.54 1974.5,-393.12 1931.63,-348.8 1832.39,-246.2 1445.99,-215.6 1303.25,-215.6"/>
<polygon fill="black" stroke="black" points="1972.94,-636.11 1981.69,-642.71 1978.14,-637.29 1982.36,-638.25 1982.36,-638.25 1982.36,-638.25 1978.14,-637.29 1983.68,-633.94 1972.94,-636.11"/>
<text text-anchor="start" x="1990.01" y="-648.4" font-family="Arial" font-size="10.00">FOREIGN KEY (room_id) REFERENCES rooms(id) ON DELETE CASCADE</text>
</g>
</g>
</svg>
