<?xml version="1.0" encoding="UTF-8" standalone="no"?>
<!DOCTYPE svg PUBLIC "-//W3C//DTD SVG 1.1//EN"
 "http://www.w3.org/Graphics/SVG/1.1/DTD/svg11.dtd">
<!-- Generated by graphviz version 12.1.2 (20240928.0832)
 -->
<!-- Title: public.skip_votes Pages: 1 -->
<svg width="986pt" height="818pt"
 viewBox="0.00 0.00 986.28 817.60" xmlns="http://www.w3.org/2000/svg" xmlns:xlink="http://www.w3.org/1999/xlink">
<g id="graph0" class="graph" transform="scale(1 1) rotate(0) translate(4 813.6)">
<title>public.skip_votes</title>
<polygon fill="white" stroke="none" points="-4,4 -4,-813.6 982.28,-813.6 982.28,4 -4,4"/>
<!-- public.skip_votes -->
<g id="node1" class="node">
<title>public.skip_votes</title>
<polygon fill="#efefef" stroke="none" points="355.62,-727.8 355.62,-763.4 624.85,-763.4 624.85,-727.8 355.62,-727.8"/>
<polygon fill="none" stroke="black" points="355.62,-727.8 355.62,-763.4 624.85,-763.4 624.85,-727.8 355.62,-727.8"/>
<text text-anchor="start" x="364.75" y="-741.2" font-family="Arial Bold" font-size="18.00">public.skip_votes</text>
<text text-anchor="start" x="491.24" y="-741.2" font-family="Arial" font-size="14.00">    </text>
<text text-anchor="start" x="522.36" y="-741.2" font-family="Arial" font-size="14.00" fill="#666666">[BASE TABLE]</text>
<polygon fill="none" stroke="black" points="355.62,-697 355.62,-727.8 624.85,-727.8 624.85,-697 355.62,-697"/>
<text text-anchor="start" x="362.62" y="-709.2" font-family="Arial" font-size="14.00">room_id </text>
<text text-anchor="start" x="417.09" y="-709.2" font-family="Arial" font-size="14.00" fill="#666666">[text]</text>
<polygon fill="none" stroke="black" points="355.62,-666.2 355.62,-697 624.85,-697 624.85,-666.2 355.62,-666.2"/>
<text text-anchor="start" x="362.62" y="-678.4" font-family="Arial" font-size="14.00">song_id </text>
<text text-anchor="start" x="415.55" y="-678.4" font-family="Arial" font-size="14.00" fill="#666666">[text]</text>
<polygon fill="none" stroke="black" points="355.62,-635.4 355.62,-666.2 624.85,-666.2 624.85,-635.4 355.62,-635.4"/>
<text text-anchor="start" x="362.62" y="-647.6" font-family="Arial" font-size="14.00">user_id </text>
<text text-anchor="start" x="412.43" y="-647.6" font-family="Arial" font-size="14.00" fill="#666666">[text]</text>
<polygon fill="none" stroke="black" points="355.62,-604.6 355.62,-635.4 624.85,-635.4 624.85,-604.6 355.62,-604.6"/>
<text text-anchor="start" x="362.62" y="-616.8" font-family="Arial" font-size="14.00">created_at </text>
<text text-anchor="start" x="432.67" y="-616.8" font-family="Arial" font-size="14.00" fill="#666666">[timestamp without time zone]</text>
<polygon fill="none" stroke="black" stroke-width="3" points="354.12,-603.1 354.12,-764.9 626.35,-764.9 626.35,-603.1 354.12,-603.1"/>
</g>
<!-- public.rooms -->
<g id="node2" class="node">
<title>public.rooms</title>
<polygon fill="#efefef" stroke="none" points="170.62,-335.8 170.62,-371.4 439.85,-371.4 439.85,-335.8 170.62,-335.8"/>
<polygon fill="none" stroke="black" points="170.62,-335.8 170.62,-371.4 439.85,-371.4 439.85,-335.8 170.62,-335.8"/>
<text text-anchor="start" x="195.75" y="-349.2" font-family="Arial Bold" font-size="18.00">public.rooms</text>
<text text-anchor="start" x="290.24" y="-349.2" font-family="Arial" font-size="14.00">    </text>
<text text-anchor="start" x="321.35" y="-349.2" font-family="Arial" font-size="14.00" fill="#666666">[BASE TABLE]</text>
<polygon fill="none" stroke="black" points="170.62,-305 170.62,-335.8 439.85,-335.8 439.85,-305 170.62,-305"/>
<text text-anchor="start" x="177.62" y="-317.2" font-family="Arial" font-size="14.00">id </text>
<text text-anchor="start" x="192.41" y="-317.2" font-family="Arial" font-size="14.00" fill="#666666">[text]</text>
<polygon fill="none" stroke="black" points="170.62,-274.2 170.62,-305 439.85,-305 439.85,-274.2 170.62,-274.2"/>
<text text-anchor="start" x="177.62" y="-286.4" font-family="Arial" font-size="14.00">name </text>
<text text-anchor="start" x="216.53" y="-286.4" font-family="Arial" font-size="14.00" fill="#666666">[text]</text>
<polygon fill="none" stroke="black" points="170.62,-243.4 170.62,-274.2 439.85,-274.2 439.85,-243.4 170.62,-243.4"/>
<text text-anchor="start" x="177.62" y="-255.6" font-family="Arial" font-size="14.00">mode </text>
<text text-anchor="start" x="216.53" y="-255.6" font-family="Arial" font-size="14.00" fill="#666666">[text]</text>
<polygon fill="none" stroke="black" points="170.62,-212.6 170.62,-243.4 439.85,-243.4 439.85,-212.6 170.62,-212.6"/>
<text text-anchor="start" x="177.62" y="-224.8" font-family="Arial" font-size="14.00">host_id </text>
<text text-anchor="start" x="226.65" y="-224.8" font-family="Arial" font-size="14.00" fill="#666666">[text]</text>
<polygon fill="none" stroke="black" points="170.62,-181.8 170.62,-212.6 439.85,-212.6 439.85,-181.8 170.62,-181.8"/>
<text text-anchor="start" x="177.62" y="-194" font-family="Arial" font-size="14.00">admin_password_hash </text>
<text text-anchor="start" x="325.49" y="-194" font-family="Arial" font-size="14.00" fill="#666666">[text]</text>
<polygon fill="none" stroke="black" points="170.62,-151 170.62,-181.8 439.85,-181.8 439.85,-151 170.62,-151"/>
<text text-anchor="start" x="177.62" y="-163.2" font-family="Arial" font-size="14.00">created_at </text>
<text text-anchor="start" x="247.67" y="-163.2" font-family="Arial" font-size="14.00" fill="#666666">[timestamp without time zone]</text>
</g>
<!-- public.skip_votes&#45;&gt;public.rooms -->
<g id="edge1" class="edge">
<title>public.skip_votes:room_id&#45;&gt;public.rooms:id</title>
<path fill="none" stroke="black" d="M344.49,-711.97C218.01,-700.49 425.92,-464.9 439.85,-414.6 451.03,-374.25 482.72,-320.4 440.85,-320.4"/>
<polygon fill="black" stroke="black" points="344.3,-711.96 354.09,-716.88 349.62,-712.19 353.95,-712.37 353.95,-712.37 353.95,-712.37 349.62,-712.19 354.48,-707.89 344.3,-711.96"/>
<text text-anchor="start" x="7" y="-722.4" font-family="Arial" font-size="10.00">FOREIGN KEY (room_id) REFERENCES rooms(id) ON DELETE CASCADE</text>
</g>
<!-- public.songs -->
<g id="node3" class="node">
<title>public.songs</title>
<polygon fill="#efefef" stroke="none" points="544.5,-443.6 544.5,-479.2 805.97,-479.2 805.97,-443.6 544.5,-443.6"/>
<polygon fill="none" stroke="black" points="544.5,-443.6 544.5,-479.2 805.97,-479.2 805.97,-443.6 544.5,-443.6"/>
<text text-anchor="start" x="567.74" y="-457" font-family="Arial Bold" font-size="18.00">public.songs</text>
<text text-anchor="start" x="658.24" y="-457" font-family="Arial" font-size="14.00">    </text>
<text text-anchor="start" x="689.36" y="-457" font-family="Arial" font-size="14.00" fill="#666666">[BASE TABLE]</text>
<polygon fill="none" stroke="black" points="544.5,-412.8 544.5,-443.6 805.97,-443.6 805.97,-412.8 544.5,-412.8"/>
<text text-anchor="start" x="551.5" y="-425" font-family="Arial" font-size="14.00">id </text>
<text text-anchor="start" x="566.29" y="-425" font-family="Arial" font-size="14.00" fill="#666666">[text]</text>
<polygon fill="none" stroke="black" points="544.5,-382 544.5,-412.8 805.97,-412.8 805.97,-382 544.5,-382"/>
<text text-anchor="start" x="551.5" y="-394.2" font-family="Arial" font-size="14.00">room_id </text>
<text text-anchor="start" x="605.97" y="-394.2" font-family="Arial" font-size="14.00" fill="#666666">[text]</text>
<polygon fill="none" stroke="black" points="544.5,-351.2 544.5,-382 805.97,-382 805.97,-351.2 544.5,-351.2"/>
<text text-anchor="start" x="551.5" y="-363.4" font-family="Arial" font-size="14.00">source_type </text>
<text text-anchor="start" x="631.66" y="-363.4" font-family="Arial" font-size="14.00" fill="#666666">[text]</text>
<polygon fill="none" stroke="black" points="544.5,-320.4 544.5,-351.2 805.97,-351.2 805.97,-320.4 544.5,-320.4"/>
<text text-anchor="start" x="551.5" y="-332.6" font-family="Arial" font-size="14.00">source_id </text>
<text text-anchor="start" x="616.1" y="-332.6" font-family="Arial" font-size="14.00" fill="#666666">[text]</text>
<polygon fill="none" stroke="black" points="544.5,-289.6 544.5,-320.4 805.97,-320.4 805.97,-289.6 544.5,-289.6"/>
<text text-anchor="start" x="551.5" y="-301.8" font-family="Arial" font-size="14.00">title </text>
<text text-anchor="start" x="577.18" y="-301.8" font-family="Arial" font-size="14.00" fill="#666666">[text]</text>
<polygon fill="none" stroke="black" points="544.5,-258.8 544.5,-289.6 805.97,-289.6 805.97,-258.8 544.5,-258.8"/>
<text text-anchor="start" x="551.5" y="-271" font-family="Arial" font-size="14.00">artist </text>
<text text-anchor="start" x="585.73" y="-271" font-family="Arial" font-size="14.00" fill="#666666">[text]</text>
<polygon fill="none" stroke="black" points="544.5,-228 544.5,-258.8 805.97,-258.8 805.97,-228 544.5,-228"/>
<text text-anchor="start" x="551.5" y="-240.2" font-family="Arial" font-size="14.00">thumbnail_url </text>
<text text-anchor="start" x="639.44" y="-240.2" font-family="Arial" font-size="14.00" fill="#666666">[text]</text>
<polygon fill="none" stroke="black" points="544.5,-197.2 544.5,-228 805.97,-228 805.97,-197.2 544.5,-197.2"/>
<text text-anchor="start" x="551.5" y="-209.4" font-family="Arial" font-size="14.00">duration </text>
<text text-anchor="start" x="605.99" y="-209.4" font-family="Arial" font-size="14.00" fill="#666666">[integer]</text>
<polygon fill="none" stroke="black" points="544.5,-166.4 544.5,-197.2 805.97,-197.2 805.97,-166.4 544.5,-166.4"/>
<text text-anchor="start" x="551.5" y="-178.6" font-family="Arial" font-size="14.00">added_by </text>
<text text-anchor="start" x="616.9" y="-178.6" font-family="Arial" font-size="14.00" fill="#666666">[text]</text>
<polygon fill="none" stroke="black" points="544.5,-135.6 544.5,-166.4 805.97,-166.4 805.97,-135.6 544.5,-135.6"/>
<text text-anchor="start" x="551.5" y="-147.8" font-family="Arial" font-size="14.00">added_by_nickname </text>
<text text-anchor="start" x="684.6" y="-147.8" font-family="Arial" font-size="14.00" fill="#666666">[text]</text>
<polygon fill="none" stroke="black" points="544.5,-104.8 544.5,-135.6 805.97,-135.6 805.97,-104.8 544.5,-104.8"/>
<text text-anchor="start" x="551.5" y="-117" font-family="Arial" font-size="14.00">added_at </text>
<text text-anchor="start" x="613.79" y="-117" font-family="Arial" font-size="14.00" fill="#666666">[timestamp without time zone]</text>
<polygon fill="none" stroke="black" points="544.5,-74 544.5,-104.8 805.97,-104.8 805.97,-74 544.5,-74"/>
<text text-anchor="start" x="551.5" y="-86.2" font-family="Arial" font-size="14.00">position </text>
<text text-anchor="start" x="603.65" y="-86.2" font-family="Arial" font-size="14.00" fill="#666666">[integer]</text>
<polygon fill="none" stroke="black" points="544.5,-43.2 544.5,-74 805.97,-74 805.97,-43.2 544.5,-43.2"/>
<text text-anchor="start" x="551.5" y="-55.4" font-family="Arial" font-size="14.00">duplicate_guard </text>
<text text-anchor="start" x="655.03" y="-55.4" font-family="Arial" font-size="14.00" fill="#666666">[boolean]</text>
</g>
<!-- public.skip_votes&#45;&gt;public.songs -->
<g id="edge2" class="edge">
<title>public.skip_votes:song_id&#45;&gt;public.songs:id</title>
<path fill="none" stroke="black" d="M636.24,-680.49C676.96,-670.88 652.7,-601.01 624.85,-558.4 603.45,-525.64 565.95,-555.13 544.5,-522.4 521.55,-487.38 501.63,-428.2 543.5,-428.2"/>
<polygon fill="black" stroke="black" points="636.13,-680.5 625.71,-677.09 630.83,-681.07 626.52,-681.53 626.52,-681.53 626.52,-681.53 630.83,-681.07 626.66,-686.04 636.13,-680.5"/>
<text text-anchor="start" x="632.85" y="-691.6" font-family="Arial" font-size="10.00">FOREIGN KEY (song_id) REFERENCES songs(id) ON DELETE CASCADE</text>
</g>
</g>
</svg>
