<?xml version="1.0" encoding="UTF-8" standalone="no"?>
<!DOCTYPE svg PUBLIC "-//W3C//DTD SVG 1.1//EN"
 "http://www.w3.org/Graphics/SVG/1.1/DTD/svg11.dtd">
<!-- Generated by graphviz version 12.1.2 (20240928.0832)
 -->
<!-- Title: public.listener_usage Pages: 1 -->
<svg width="391pt" height="198pt"
 viewBox="0.00 0.00 391.34 197.60" xmlns="http://www.w3.org/2000/svg" xmlns:xlink="http://www.w3.org/1999/xlink">
<g id="graph0" class="graph" transform="scale(1 1) rotate(0) translate(4 193.6)">
<title>public.listener_usage</title>
<polygon fill="white" stroke="none" points="-4,4 -4,-193.6 387.34,-193.6 387.34,4 -4,4"/>
<!-- public.listener_usage -->
<g id="node1" class="node">
<title>public.listener_usage</title>
<polygon fill="#efefef" stroke="none" points="46.2,-107.8 46.2,-143.4 337.14,-143.4 337.14,-107.8 46.2,-107.8"/>
<polygon fill="none" stroke="black" points="46.2,-107.8 46.2,-143.4 337.14,-143.4 337.14,-107.8 46.2,-107.8"/>
<text text-anchor="start" x="53.2" y="-121.2" font-family="Arial Bold" font-size="18.00">public.listener_usage</text>
<text text-anchor="start" x="205.66" y="-121.2" font-family="Arial" font-size="14.00">    </text>
<text text-anchor="start" x="236.77" y="-121.2" font-family="Arial" font-size="14.00" fill="#666666">[BASE TABLE]</text>
<polygon fill="none" stroke="black" points="46.2,-77 46.2,-107.8 337.14,-107.8 337.14,-77 46.2,-77"/>
<text text-anchor="start" x="53.2" y="-89.2" font-family="Arial" font-size="14.00">listener_count </text>
<text text-anchor="start" x="144.25" y="-89.2" font-family="Arial" font-size="14.00" fill="#666666">[bigint]</text>
<polygon fill="none" stroke="black" points="46.2,-46.2 46.2,-77 337.14,-77 337.14,-46.2 46.2,-46.2"/>
<text text-anchor="start" x="53.2" y="-58.4" font-family="Arial" font-size="14.00">created_at </text>
<text text-anchor="start" x="123.25" y="-58.4" font-family="Arial" font-size="14.00" fill="#666666">[timestamp with time zone]</text>
<polygon fill="none" stroke="black" stroke-width="3" points="44.7,-44.7 44.7,-144.9 338.64,-144.9 338.64,-44.7 44.7,-44.7"/>
</g>
</g>
</svg>
