<?xml version="1.0" encoding="UTF-8" standalone="no"?>
<!DOCTYPE svg PUBLIC "-//W3C//DTD SVG 1.1//EN"
 "http://www.w3.org/Graphics/SVG/1.1/DTD/svg11.dtd">
<!-- Generated by graphviz version 12.1.2 (20240928.0832)
 -->
<!-- Title: public.room_name_pool Pages: 1 -->
<svg width="415pt" height="259pt"
 viewBox="0.00 0.00 415.36 259.20" xmlns="http://www.w3.org/2000/svg" xmlns:xlink="http://www.w3.org/1999/xlink">
<g id="graph0" class="graph" transform="scale(1 1) rotate(0) translate(4 255.2)">
<title>public.room_name_pool</title>
<polygon fill="white" stroke="none" points="-4,4 -4,-255.2 411.36,-255.2 411.36,4 -4,4"/>
<!-- public.room_name_pool -->
<g id="node1" class="node">
<title>public.room_name_pool</title>
<polygon fill="#efefef" stroke="none" points="46.2,-169.4 46.2,-205 361.16,-205 361.16,-169.4 46.2,-169.4"/>
<polygon fill="none" stroke="black" points="46.2,-169.4 46.2,-205 361.16,-205 361.16,-169.4 46.2,-169.4"/>
<text text-anchor="start" x="53.2" y="-182.8" font-family="Arial Bold" font-size="18.00">public.room_name_pool</text>
<text text-anchor="start" x="229.67" y="-182.8" font-family="Arial" font-size="14.00">    </text>
<text text-anchor="start" x="260.78" y="-182.8" font-family="Arial" font-size="14.00" fill="#666666">[BASE TABLE]</text>
<polygon fill="none" stroke="black" points="46.2,-138.6 46.2,-169.4 361.16,-169.4 361.16,-138.6 46.2,-138.6"/>
<text text-anchor="start" x="53.2" y="-150.8" font-family="Arial" font-size="14.00">id </text>
<text text-anchor="start" x="67.99" y="-150.8" font-family="Arial" font-size="14.00" fill="#666666">[bigint]</text>
<polygon fill="none" stroke="black" points="46.2,-107.8 46.2,-138.6 361.16,-138.6 361.16,-107.8 46.2,-107.8"/>
<text text-anchor="start" x="53.2" y="-120" font-family="Arial" font-size="14.00">name </text>
<text text-anchor="start" x="92.11" y="-120" font-family="Arial" font-size="14.00" fill="#666666">[text]</text>
<polygon fill="none" stroke="black" points="46.2,-77 46.2,-107.8 361.16,-107.8 361.16,-77 46.2,-77"/>
<text text-anchor="start" x="53.2" y="-89.2" font-family="Arial" font-size="14.00">generated </text>
<text text-anchor="start" x="120.14" y="-89.2" font-family="Arial" font-size="14.00" fill="#666666">[boolean]</text>
<polygon fill="none" stroke="black" points="46.2,-46.2 46.2,-77 361.16,-77 361.16,-46.2 46.2,-46.2"/>
<text text-anchor="start" x="53.2" y="-58.4" font-family="Arial" font-size="14.00">consumed_at </text>
<text text-anchor="start" x="141.14" y="-58.4" font-family="Arial" font-size="14.00" fill="#666666">[timestamp without time zone]</text>
<polygon fill="none" stroke="black" stroke-width="3" points="44.7,-44.7 44.7,-206.5 362.66,-206.5 362.66,-44.7 44.7,-44.7"/>
</g>
</g>
</svg>
