<?xml version="1.0" encoding="UTF-8" standalone="no"?>
<!DOCTYPE svg PUBLIC "-//W3C//DTD SVG 1.1//EN"
 "http://www.w3.org/Graphics/SVG/1.1/DTD/svg11.dtd">
<!-- Generated by graphviz version 12.1.2 (20240928.0832)
 -->
<!-- Title: public.songs Pages: 1 -->
<svg width="362pt" height="536pt"
 viewBox="0.00 0.00 361.87 536.40" xmlns="http://www.w3.org/2000/svg" xmlns:xlink="http://www.w3.org/1999/xlink">
<g id="graph0" class="graph" transform="scale(1 1) rotate(0) translate(4 532.4)">
<title>public.songs</title>
<polygon fill="white" stroke="none" points="-4,4 -4,-532.4 357.87,-532.4 357.87,4 -4,4"/>
<!-- public.songs -->
<g id="node1" class="node">
<title>public.songs</title>
<polygon fill="#efefef" stroke="none" points="46.2,-446.6 46.2,-482.2 307.67,-482.2 307.67,-446.6 46.2,-446.6"/>
<polygon fill="none" stroke="black" points="46.2,-446.6 46.2,-482.2 307.67,-482.2 307.67,-446.6 46.2,-446.6"/>
<text text-anchor="start" x="69.44" y="-460" font-family="Arial Bold" font-size="18.00">public.songs</text>
<text text-anchor="start" x="159.94" y="-460" font-family="Arial" font-size="14.00">    </text>
<text text-anchor="start" x="191.06" y="-460" font-family="Arial" font-size="14.00" fill="#666666">[BASE TABLE]</text>
<polygon fill="none" stroke="black" points="46.2,-415.8 46.2,-446.6 307.67,-446.6 307.67,-415.8 46.2,-415.8"/>
<text text-anchor="start" x="53.2" y="-428" font-family="Arial" font-size="14.00">id </text>
<text text-anchor="start" x="67.99" y="-428" font-family="Arial" font-size="14.00" fill="#666666">[text]</text>
<polygon fill="none" stroke="black" points="46.2,-385 46.2,-415.8 307.67,-415.8 307.67,-385 46.2,-385"/>
<text text-anchor="start" x="53.2" y="-397.2" font-family="Arial" font-size="14.00">room_id </text>
<text text-anchor="start" x="107.67" y="-397.2" font-family="Arial" font-size="14.00" fill="#666666">[text]</text>
<polygon fill="none" stroke="black" points="46.2,-354.2 46.2,-385 307.67,-385 307.67,-354.2 46.2,-354.2"/>
<text text-anchor="start" x="53.2" y="-366.4" font-family="Arial" font-size="14.00">source_type </text>
<text text-anchor="start" x="133.36" y="-366.4" font-family="Arial" font-size="14.00" fill="#666666">[text]</text>
<polygon fill="none" stroke="black" points="46.2,-323.4 46.2,-354.2 307.67,-354.2 307.67,-323.4 46.2,-323.4"/>
<text text-anchor="start" x="53.2" y="-335.6" font-family="Arial" font-size="14.00">source_id </text>
<text text-anchor="start" x="117.79" y="-335.6" font-family="Arial" font-size="14.00" fill="#666666">[text]</text>
<polygon fill="none" stroke="black" points="46.2,-292.6 46.2,-323.4 307.67,-323.4 307.67,-292.6 46.2,-292.6"/>
<text text-anchor="start" x="53.2" y="-304.8" font-family="Arial" font-size="14.00">title </text>
<text text-anchor="start" x="78.88" y="-304.8" font-family="Arial" font-size="14.00" fill="#666666">[text]</text>
<polygon fill="none" stroke="black" points="46.2,-261.8 46.2,-292.6 307.67,-292.6 307.67,-261.8 46.2,-261.8"/>
<text text-anchor="start" x="53.2" y="-274" font-family="Arial" font-size="14.00">artist </text>
<text text-anchor="start" x="87.43" y="-274" font-family="Arial" font-size="14.00" fill="#666666">[text]</text>
<polygon fill="none" stroke="black" points="46.2,-231 46.2,-261.8 307.67,-261.8 307.67,-231 46.2,-231"/>
<text text-anchor="start" x="53.2" y="-243.2" font-family="Arial" font-size="14.00">thumbnail_url </text>
<text text-anchor="start" x="141.14" y="-243.2" font-family="Arial" font-size="14.00" fill="#666666">[text]</text>
<polygon fill="none" stroke="black" points="46.2,-200.2 46.2,-231 307.67,-231 307.67,-200.2 46.2,-200.2"/>
<text text-anchor="start" x="53.2" y="-212.4" font-family="Arial" font-size="14.00">duration </text>
<text text-anchor="start" x="107.68" y="-212.4" font-family="Arial" font-size="14.00" fill="#666666">[integer]</text>
<polygon fill="none" stroke="black" points="46.2,-169.4 46.2,-200.2 307.67,-200.2 307.67,-169.4 46.2,-169.4"/>
<text text-anchor="start" x="53.2" y="-181.6" font-family="Arial" font-size="14.00">added_by </text>
<text text-anchor="start" x="118.59" y="-181.6" font-family="Arial" font-size="14.00" fill="#666666">[text]</text>
<polygon fill="none" stroke="black" points="46.2,-138.6 46.2,-169.4 307.67,-169.4 307.67,-138.6 46.2,-138.6"/>
<text text-anchor="start" x="53.2" y="-150.8" font-family="Arial" font-size="14.00">added_by_nickname </text>
<text text-anchor="start" x="186.3" y="-150.8" font-family="Arial" font-size="14.00" fill="#666666">[text]</text>
<polygon fill="none" stroke="black" points="46.2,-107.8 46.2,-138.6 307.67,-138.6 307.67,-107.8 46.2,-107.8"/>
<text text-anchor="start" x="53.2" y="-120" font-family="Arial" font-size="14.00">added_at </text>
<text text-anchor="start" x="115.48" y="-120" font-family="Arial" font-size="14.00" fill="#666666">[timestamp without time zone]</text>
<polygon fill="none" stroke="black" points="46.2,-77 46.2,-107.8 307.67,-107.8 307.67,-77 46.2,-77"/>
<text text-anchor="start" x="53.2" y="-89.2" font-family="Arial" font-size="14.00">position </text>
<text text-anchor="start" x="105.34" y="-89.2" font-family="Arial" font-size="14.00" fill="#666666">[integer]</text>
<polygon fill="none" stroke="black" points="46.2,-46.2 46.2,-77 307.67,-77 307.67,-46.2 46.2,-46.2"/>
<text text-anchor="start" x="53.2" y="-58.4" font-family="Arial" font-size="14.00">duplicate_guard </text>
<text text-anchor="start" x="156.72" y="-58.4" font-family="Arial" font-size="14.00" fill="#666666">[boolean]</text>
<polygon fill="none" stroke="black" stroke-width="3" points="44.7,-44.7 44.7,-483.7 309.17,-483.7 309.17,-44.7 44.7,-44.7"/>
</g>
</g>
</svg>
